<svg id="Layer_1" data-name="Layer 1" xmlns="http://www.w3.org/2000/svg" viewBox="0 0 1000 1000"><defs><style>.cls-1{fill:#c4c4cd;}</style></defs><path class="cls-1" d="M853.55,146.45A498.36,498.36,0,0,0,500,0C223.85,0,0,223.86,0,500A500,500,0,1,0,853.55,146.45ZM822.61,822.63A456.25,456.25,0,0,1,43.75,500C43.75,248,248,43.75,500,43.75A456.25,456.25,0,0,1,822.61,822.63Z"/><path class="cls-1" d="M420.31,362A159.33,159.33,0,0,0,340.62,500H84.38c0-153.83,83.57-288.14,207.79-360Z"/><path class="cls-1" d="M707.83,860a416.13,416.13,0,0,1-415.64,0l128.12-222a159.59,159.59,0,0,0,159.38,0Z"/><path class="cls-1" d="M915.62,500H659.38a159.33,159.33,0,0,0-79.69-138L707.81,140C832.05,211.85,915.62,346.16,915.62,500Z"/><line class="cls-1" x1="707.83" y1="860.01" x2="579.69" y2="638.05"/><line class="cls-1" x1="420.31" y1="361.95" x2="292.18" y2="139.99"/><line class="cls-1" x1="707.81" y1="139.99" x2="579.69" y2="361.95"/><line class="cls-1" x1="420.31" y1="638.05" x2="292.19" y2="860.01"/><circle class="cls-1" cx="500.01" cy="500" r="82.5"/></svg>